PathFileType	4	(X/Y/Z)	/Users/niels/Desktop/University/Third Semester/Perception and Action/Exam/Gymnastics Motion Tracking/Code for Gym Tracking/Analyzed Data/Webcam_Backflip/id9_2_trajectory_Sports2D/id9_2_trajectory_Sports2D_px_person00.trc
DataRate	CameraRate	NumFrames	NumMarkers	Units	OrigDataRate	OrigDataStartFrame	OrigNumFrames
29.714285714285715	29.714285714285715	9	22	m	29.714285714285715	91	105
Frame#	Time	Hip			RHip			RKnee			RAnkle			RBigToe			RSmallToe			RHeel			LHip			LKnee			LAnkle			LBigToe			LSmallToe			LHeel			Neck			Head			Nose			RShoulder			RElbow			RWrist			LShoulder			LElbow			LWrist		
		X1	Y1	Z1	X2	Y2	Z2	X3	Y3	Z3	X4	Y4	Z4	X5	Y5	Z5	X6	Y6	Z6	X7	Y7	Z7	X8	Y8	Z8	X9	Y9	Z9	X10	Y10	Z10	X11	Y11	Z11	X12	Y12	Z12	X13	Y13	Z13	X14	Y14	Z14	X15	Y15	Z15	X16	Y16	Z16	X17	Y17	Z17	X18	Y18	Z18	X19	Y19	Z19	X20	Y20	Z20	X21	Y21	Z21	X22	Y22	Z22
91	3.0625	0.6243238263147791	-0.5894101921348047	0.0	0.552488176832952	-0.6018387418591991	0.0	0.5685095983956255	-0.8864521203022665	0.0	0.5918564214212068	-1.0541912462190683	0.0	0.5867775697692559	-1.07578652516377	0.0	0.567140523420075	-1.0682080196307127	0.0	0.5862998427501863	-1.0519286467547104	0.0	0.6907217463865125	-0.5929511017433869	0.0	0.6644173049773174	-0.8887440354826948	0.0	0.6510149712654804	-1.0847395946352854	0.0	0.7065797969952851	-1.0856002137553424	0.0	0.6961490507281738	-1.0715375242339085	0.0	0.650456662195525	-1.0737901468168376	0.0	0.629662462411989	-0.1703548483603485	0.0	0.623360999825003	-0.0001686217619966703	0.0	0.6357044453840166	-0.08949027329427017	0.0	0.4869761755091637	-0.25162911994178755	0.0	0.4424478861760248	-0.4606454260326641	0.0	0.44462029411527104	-0.641965207718576	0.0	0.75862183790455	-0.25933923992494495	0.0	0.7942859775030573	-0.4372553015410308	0.0	0.8433648247259024	-0.5694723071939243	0.0
92	3.096153846153846	0.6219746312238729	-0.5915604510633119	0.0	0.5489580403843313	-0.604101833390713	0.0	0.5650518732944473	-0.889939962608047	0.0	0.5919652755146522	-1.0550477820242876	0.0	0.5809311204955473	-1.0758014403466791	0.0	0.5650847362137804	-1.0672558414940334	0.0	0.5880343661803191	-1.0509522621542557	0.0	0.6897575002160168	-0.5957784477659129	0.0	0.6608152422422758	-0.8947616875131817	0.0	0.6455937247872826	-1.0865018474886676	0.0	0.7070631584946575	-1.085595682740621	0.0	0.6939428198280001	-1.0710630550537332	0.0	0.6457774055807444	-1.0761475525159878	0.0	0.6287749581120335	-0.16550211929630826	0.0	0.6234935158797831	0.004763472471669715	0.0	0.6338914599467008	-0.08286858711699692	0.0	0.4833250776223462	-0.24703056329080572	0.0	0.4366052884537826	-0.458791196645707	0.0	0.43577320075492637	-0.6430244644966877	0.0	0.7607937181462369	-0.25545869192786974	0.0	0.7954707241166069	-0.4389828084695052	0.0	0.8407837737435907	-0.5814739767120612	0.0
93	3.129807692307692	0.6199184688188435	-0.5924213181073191	0.0	0.5455065847881506	-0.6045339760774097	0.0	0.5597805969140008	-0.8924906592127907	0.0	0.5908110625329818	-1.0557244553422955	0.0	0.5764537322043229	-1.0769201711761132	0.0	0.5628556156650086	-1.067712273009284	0.0	0.5886271106027505	-1.050229101740681	0.0	0.6894536700437996	-0.5970135280512819	0.0	0.6584910841980751	-0.8999411154102805	0.0	0.6417844874767302	-1.0885235758409708	0.0	0.7073996534490105	-1.0856222407208371	0.0	0.6929350605763112	-1.0709302069353477	0.0	0.6416973837864633	-1.0795096450549289	0.0	0.6284925354150269	-0.1588160811681791	0.0	0.6241930750928727	0.010021736003844144	0.0	0.6330389232280249	-0.07418743226617892	0.0	0.480662404069903	-0.2397525983532783	0.0	0.4306965110249296	-0.45458505622416034	0.0	0.4256436841913249	-0.6422937426960627	0.0	0.7633495960288599	-0.24954675517237812	0.0	0.7972114088618384	-0.43909112719904686	0.0	0.8389348022202515	-0.5915697483592992	0.0
94	3.1634615384615383	0.6182473063266404	-0.5918179212435049	0.0	0.542154946158917	-0.602949834647734	0.0	0.5526961090449187	-0.8950031963531995	0.0	0.5880746811057154	-1.0556792680097704	0.0	0.5737122513982973	-1.0791195367300601	0.0	0.5601325789642393	-1.0691751539865324	0.0	0.5878794340036511	-1.0489693732748189	0.0	0.689932757420537	-0.5964781991950441	0.0	0.6575410533741289	-0.9042920761536234	0.0	0.6396452998295902	-1.0902513787108525	0.0	0.7075847282236886	-1.0856544663844352	0.0	0.6926939470310635	-1.070974225759552	0.0	0.6380532852321568	-1.0834328625169671	0.0	0.6286282636728711	-0.1502244522098322	0.0	0.6252117072158637	0.015901928694661352	0.0	0.6329266697214235	-0.06352232833757414	0.0	0.4787175337330977	-0.22993705173573664	0.0	0.4248172330292207	-0.44822183555982603	0.0	0.4145210800924119	-0.6396996352977472	0.0	0.766079379550488	-0.24154500951815835	0.0	0.7995985539971386	-0.4371336248214219	0.0	0.8383056085227908	-0.5984976202932881	0.0
95	3.1971153846153846	0.6169514849017301	-0.5899176987544401	0.0	0.5389368262296697	-0.5996869892668771	0.0	0.544305198448259	-0.8987003694244496	0.0	0.5836755514289838	-1.0550494585764456	0.0	0.5724242818448333	-1.0822587374105284	0.0	0.5567013010139209	-1.0711764419240772	0.0	0.5858504628480298	-1.0469529795706123	0.0	0.691176477150983	-0.594472466143872	0.0	0.6579602663552859	-0.908396650679916	0.0	0.639067563461019	-1.0910130356577215	0.0	0.7076573594362291	-1.0856803365132566	0.0	0.6928343635479901	-1.0710793783272872	0.0	0.6346603432335507	-1.0875823868008878	0.0	0.6288713840543887	-0.13990872048596878	0.0	0.6261693352281902	0.023014857587981642	0.0	0.6331268881429291	-0.05126290348074763	0.0	0.47698605426690477	-0.21828868537466325	0.0	0.418945732576083	-0.4402627120921711	0.0	0.4027550917762747	-0.6353349458619999	0.0	0.7687739207051706	-0.23171271694717163	0.0	0.8026817723594677	-0.4329980647828343	0.0	0.8393127954657034	-0.6016952033510489	0.0
96	3.230769230769231	0.6159447449010712	-0.5870856985981169	0.0	0.5359048128334052	-0.5954462754932975	0.0	0.5355830595606729	-0.9044670186046411	0.0	0.5777628763181922	-1.0546703237085773	0.0	0.5715535619840749	-1.085898088959639	0.0	0.5524273082754813	-1.0731887814239496	0.0	0.5826289090095432	-1.0447657334142104	0.0	0.6929838215793925	-0.5915770849612374	0.0	0.6595665184864122	-0.9129958489292198	0.0	0.6398910297405325	-1.0901950795614606	0.0	0.7076639763518001	-1.0856966027617858	0.0	0.6930943888843726	-1.0711813946114512	0.0	0.6313750355876308	-1.0917583448942954	0.0	0.6288640455145186	-0.12827289189328506	0.0	0.62668206098196	0.03219917879889682	0.0	0.633192048630928	-0.038003573738815896	0.0	0.47491245492016204	-0.20586439224701655	0.0	0.4130050019440255	-0.431532844727546	0.0	0.3906770623776003	-0.6296113888848116	0.0	0.7712863730725223	-0.22050793406630062	0.0	0.8064519523580703	-0.42694847095762256	0.0	0.8421784795272648	-0.6014121439566162	0.0
97	3.2644230769230766	0.6151311909506463	-0.5837542196729067	0.0	0.5330972340373211	-0.5909985249090345	0.0	0.5276512538277693	-0.9123034849059943	0.0	0.5705931456368394	-1.0555710909130878	0.0	0.5696469287664577	-1.089160148228302	0.0	0.5472472057607306	-1.0744944792538362	0.0	0.5781423172164906	-1.0434186591615875	0.0	0.6950559985130529	-0.5884364684345724	0.0	0.661943523580991	-0.9185843335941688	0.0	0.6418495580176783	-1.0874517322183237	0.0	0.7076415571074016	-1.0857045155385057	0.0	0.6933336285175834	-1.0712545900743706	0.0	0.6281098521076578	-1.0958701979840408	0.0	0.628307345569221	-0.11587997525419418	0.0	0.6265168855704728	0.04437206252618425	0.0	0.6328336453097112	-0.024322257765580942	0.0	0.4720820130410091	-0.1936954105357917	0.0	0.40694153145081696	-0.4229639574324844	0.0	0.3785634582546456	-0.6232705797039345	0.0	0.7736112245885655	-0.20842962214187635	0.0	0.8108379815074411	-0.41953225239421055	0.0	0.846955107949396	-0.5984369695872989	0.0
98	3.298076923076923	0.6144659966229546	-0.5803510239773755	0.0	0.5305147122926687	-0.5869582291238808	0.0	0.5213135676322668	-0.9213498392521714	0.0	0.5624498042721794	-1.0582688796546107	0.0	0.5655791088135351	-1.0910896835117185	0.0	0.5413442712438323	-1.0743019497811506	0.0	0.5723197451009597	-1.0436469339065786	0.0	0.6971804030655442	-0.5856219270070058	0.0	0.6645276282061733	-0.9253099181203027	0.0	0.6444385357767388	-1.0831152890151787	0.0	0.7076132009150696	-1.085706844958342	0.0	0.6934997357684889	-1.0712961385639255	0.0	0.6248241400544591	-1.0998968272696956	0.0	0.6270357326182174	-0.10343458610600695	0.0	0.6255686415176539	0.06012908989249756	0.0	0.6319254819150758	-0.010704691296465039	0.0	0.4683559897192902	-0.1824937141789209	0.0	0.40076529208200035	-0.4153152944899459	0.0	0.36663891476376625	-0.6171344785301925	0.0	0.7758311081300918	-0.19592879085607184	0.0	0.8157527243712908	-0.4113502825414933	0.0	0.8535761082413492	-0.5936017286692679	0.0
99	3.331730769230769	0.6139577920457271	-0.577281236417954	0.0	0.5281269477908896	-0.5837449424676275	0.0	0.5167482040686593	-0.9304175239545509	0.0	0.5536194472264813	-1.0623921456232872	0.0	0.559076071140854	-1.091256047700381	0.0	0.5351558195208953	-1.072187689484595	0.0	0.5653718490763433	-1.045595154680205	0.0	0.6993116622412531	-0.5836245694053944	0.0	0.6668098808236371	-0.9329520985896419	0.0	0.6469275723748663	-1.078851167135952	0.0	0.7075900450769539	-1.0857062410375773	0.0	0.6935908345350239	-1.0713134124703172	0.0	0.6215072683971653	-1.1038518040022078	0.0	0.6250706892293441	-0.09182368214687427	0.0	0.6237245661686308	0.07879391362967203	0.0	0.6304328072429439	0.002281987086977153	0.0	0.4638955107824208	-0.17262295146654807	0.0	0.3945576745580156	-0.40896166725524213	0.0	0.35507116008326556	-0.6118655497210777	0.0	0.7779828606419126	-0.18344368574317257	0.0	0.8211551723396328	-0.40288524560239747	0.0	0.8618468401557786	-0.5874930970853356	0.0
